<svg width="400" height="400" viewBox="0 0 400 400" fill="none" xmlns="http://www.w3.org/2000/svg">
<rect width="400" height="400" fill="#022435"/>
<path d="M291.109 325.564C290.098 325.564 289.149 325.483 288.263 325.32C287.389 325.17 286.665 324.977 286.091 324.74L287.888 318.785C288.825 319.072 289.667 319.228 290.416 319.253C291.178 319.278 291.833 319.103 292.383 318.729C292.944 318.354 293.4 317.717 293.75 316.819L294.218 315.601L283.9 286.014H292.289L298.244 307.137H298.544L304.555 286.014H313L301.821 317.886C301.284 319.434 300.553 320.782 299.63 321.931C298.718 323.092 297.564 323.984 296.165 324.609C294.767 325.245 293.082 325.564 291.109 325.564Z" fill="white"/>
<path d="M281.311 286.014V292.006H263.558V286.014H281.311ZM267.622 314.777V283.935C267.622 281.85 268.027 280.121 268.839 278.748C269.663 277.375 270.786 276.345 272.21 275.658C273.633 274.972 275.249 274.628 277.06 274.628C278.283 274.628 279.4 274.722 280.412 274.909C281.435 275.096 282.197 275.265 282.696 275.415L281.273 281.407C280.961 281.307 280.574 281.214 280.112 281.126C279.663 281.039 279.201 280.995 278.726 280.995C277.553 280.995 276.735 281.27 276.273 281.819C275.811 282.356 275.58 283.111 275.58 284.085V314.777H267.622Z" fill="white"/>
<path d="M251.475 314.777V286.014H259.453V314.777H251.475ZM255.483 282.306C254.297 282.306 253.279 281.913 252.43 281.126C251.594 280.327 251.176 279.372 251.176 278.261C251.176 277.163 251.594 276.22 252.43 275.434C253.279 274.635 254.297 274.235 255.483 274.235C256.669 274.235 257.68 274.635 258.516 275.434C259.365 276.22 259.79 277.163 259.79 278.261C259.79 279.372 259.365 280.327 258.516 281.126C257.68 281.913 256.669 282.306 255.483 282.306Z" fill="white"/>
<path d="M246.279 286.014V292.006H228.957V286.014H246.279ZM232.89 279.123H240.867V305.939C240.867 306.675 240.979 307.249 241.204 307.661C241.429 308.061 241.741 308.342 242.14 308.504C242.552 308.666 243.027 308.748 243.563 308.748C243.938 308.748 244.313 308.716 244.687 308.654C245.062 308.579 245.349 308.523 245.548 308.485L246.803 314.422C246.404 314.546 245.842 314.69 245.118 314.852C244.394 315.027 243.514 315.133 242.477 315.171C240.555 315.246 238.869 314.99 237.421 314.403C235.986 313.816 234.868 312.905 234.069 311.669C233.27 310.433 232.877 308.872 232.89 306.987V279.123Z" fill="white"/>
<path d="M213.025 315.339C210.079 315.339 207.545 314.715 205.423 313.467C203.313 312.206 201.69 310.458 200.554 308.223C199.43 305.989 198.868 303.417 198.868 300.508C198.868 297.562 199.436 294.978 200.572 292.755C201.721 290.521 203.35 288.779 205.46 287.531C207.57 286.27 210.079 285.639 212.988 285.639C215.497 285.639 217.694 286.095 219.58 287.006C221.465 287.918 222.957 289.197 224.055 290.845C225.154 292.493 225.759 294.428 225.872 296.65H218.344C218.131 295.215 217.57 294.06 216.658 293.186C215.759 292.3 214.58 291.857 213.119 291.857C211.883 291.857 210.803 292.194 209.879 292.868C208.968 293.529 208.256 294.497 207.745 295.77C207.233 297.044 206.977 298.585 206.977 300.396C206.977 302.231 207.227 303.791 207.726 305.077C208.238 306.363 208.956 307.343 209.879 308.017C210.803 308.691 211.883 309.028 213.119 309.028C214.03 309.028 214.848 308.841 215.572 308.467C216.309 308.092 216.914 307.549 217.389 306.837C217.876 306.113 218.194 305.246 218.344 304.235H225.872C225.747 306.432 225.148 308.367 224.074 310.04C223.013 311.7 221.546 312.998 219.673 313.935C217.801 314.871 215.585 315.339 213.025 315.339Z" fill="white"/>
<path d="M181.622 315.339C178.663 315.339 176.116 314.74 173.981 313.541C171.859 312.33 170.224 310.62 169.075 308.41C167.927 306.188 167.352 303.56 167.352 300.527C167.352 297.568 167.927 294.971 169.075 292.737C170.224 290.502 171.84 288.76 173.925 287.512C176.023 286.264 178.482 285.639 181.303 285.639C183.201 285.639 184.967 285.945 186.603 286.557C188.251 287.156 189.686 288.061 190.91 289.272C192.146 290.483 193.107 292.006 193.794 293.841C194.48 295.664 194.824 297.799 194.824 300.246V302.437H170.536V297.493H187.314C187.314 296.345 187.065 295.327 186.565 294.441C186.066 293.554 185.373 292.861 184.487 292.362C183.613 291.85 182.595 291.594 181.434 291.594C180.223 291.594 179.15 291.875 178.213 292.437C177.29 292.986 176.566 293.729 176.041 294.665C175.517 295.589 175.249 296.619 175.236 297.755V302.456C175.236 303.879 175.498 305.108 176.023 306.145C176.559 307.181 177.315 307.98 178.288 308.542C179.262 309.103 180.417 309.384 181.753 309.384C182.639 309.384 183.451 309.259 184.187 309.01C184.924 308.76 185.554 308.385 186.078 307.886C186.603 307.387 187.002 306.775 187.277 306.051L194.655 306.538C194.281 308.311 193.513 309.859 192.352 311.182C191.203 312.493 189.718 313.516 187.895 314.253C186.085 314.977 183.994 315.339 181.622 315.339Z" fill="white"/>
<path d="M164.67 286.014V292.006H146.917V286.014H164.67ZM150.981 314.777V283.935C150.981 281.85 151.387 280.121 152.198 278.748C153.022 277.375 154.146 276.345 155.569 275.658C156.992 274.972 158.609 274.628 160.419 274.628C161.642 274.628 162.76 274.722 163.771 274.909C164.795 275.096 165.556 275.265 166.055 275.415L164.632 281.407C164.32 281.307 163.933 281.214 163.471 281.126C163.022 281.039 162.56 280.995 162.085 280.995C160.912 280.995 160.094 281.27 159.632 281.819C159.17 282.356 158.939 283.111 158.939 284.085V314.777H150.981Z" fill="white"/>
<path d="M144.328 286.014V292.006H126.576V286.014H144.328ZM130.64 314.777V283.935C130.64 281.85 131.045 280.121 131.857 278.748C132.681 277.375 133.804 276.345 135.227 275.658C136.651 274.972 138.267 274.628 140.078 274.628C141.301 274.628 142.418 274.722 143.43 274.909C144.453 275.096 145.215 275.265 145.714 275.415L144.291 281.407C143.979 281.307 143.592 281.214 143.13 281.126C142.68 281.039 142.219 280.995 141.744 280.995C140.571 280.995 139.753 281.27 139.291 281.819C138.829 282.356 138.598 283.111 138.598 284.085V314.777H130.64Z" fill="white"/>
<path d="M96.689 314.777H88L101.239 276.426H111.689L124.909 314.777H116.22L106.614 285.19H106.314L96.689 314.777ZM96.1459 299.703H116.67V306.032H96.1459V299.703Z" fill="white"/>
<path d="M202.181 142.74L216.657 110.877L282.704 253.586H253.073L202.181 142.74Z" fill="white"/>
<path d="M177.037 194.438H189.282L202.578 222.382H164.267L177.037 194.438Z" fill="white"/>
<path d="M192.662 194.438H198.071L211.123 222.382H205.489L192.662 194.438Z" fill="white"/>
<path d="M200.775 194.438H206.183L219.235 222.382H213.601L200.775 194.438Z" fill="white"/>
<path d="M208.887 194.438H214.296L227.348 222.382H221.714L208.887 194.438Z" fill="white"/>
<path d="M217 194.438H222.409L235.461 222.382H229.827L217 194.438Z" fill="white"/>
<path d="M202.577 80.4085L200.098 75L117.619 254.382H122.577L202.577 80.4085Z" fill="white"/>
<path d="M206.634 89.4227L204.155 84.0142L125.731 254.382H130.689L206.634 89.4227Z" fill="white"/>
<path d="M210.69 97.9861L208.212 92.5776L133.845 254.382H138.802L210.69 97.9861Z" fill="white"/>
<path d="M214.747 107L212.268 101.592L141.732 254.382H146.689L214.747 107Z" fill="white"/>
</svg>
